<?xml version="1.0" encoding="UTF-8" standalone="no"?>
<!-- Created with Inkscape (http://www.inkscape.org/) -->

<svg
   xmlns:dc="http://purl.org/dc/elements/1.1/"
   xmlns:cc="http://creativecommons.org/ns#"
   xmlns:rdf="http://www.w3.org/1999/02/22-rdf-syntax-ns#"
   xmlns:svg="http://www.w3.org/2000/svg"
   xmlns="http://www.w3.org/2000/svg"
   xmlns:sodipodi="http://sodipodi.sourceforge.net/DTD/sodipodi-0.dtd"
   xmlns:inkscape="http://www.inkscape.org/namespaces/inkscape"
   width="1024px"
   height="768px"
   id="svg3948"
   version="1.1"
   inkscape:version="0.48.4 r9939"
   sodipodi:docname="gorilla.svg">
  <defs
     id="defs3950" />
  <sodipodi:namedview
     id="base"
     pagecolor="#ffffff"
     bordercolor="#666666"
     borderopacity="1.0"
     inkscape:pageopacity="0.0"
     inkscape:pageshadow="2"
     inkscape:zoom="0.5"
     inkscape:cx="398.59304"
     inkscape:cy="308.04925"
     inkscape:current-layer="layer1"
     inkscape:document-units="px"
     showgrid="false"
     inkscape:window-width="1307"
     inkscape:window-height="744"
     inkscape:window-x="59"
     inkscape:window-y="24"
     inkscape:window-maximized="1" />
  <metadata
     id="metadata3953">
    <rdf:RDF>
      <cc:Work
         rdf:about="">
        <dc:format>image/svg+xml</dc:format>
        <dc:type
           rdf:resource="http://purl.org/dc/dcmitype/StillImage" />
        <dc:title></dc:title>
      </cc:Work>
    </rdf:RDF>
  </metadata>
  <g
     id="layer1"
     inkscape:label="Layer 1"
     inkscape:groupmode="layer">
    <g
       style="fill:#9b0032;fill-opacity:1;stroke:none"
       transform="matrix(0.99573365,0,0,-0.96223273,533.69577,244.36969)"
       id="g4534">
      <path
         inkscape:connector-curvature="0"
         id="path4536"
         style="fill:#9b0032;fill-opacity:1;fill-rule:nonzero;stroke:none"
         d="m 0,0 c -16.061,8.325 -53.181,11.182 -53.181,11.182 0,0 13.973,15.863 26.643,13.199 C -13.867,21.717 0,0 0,0 m 119.876,9.899 c -17.753,1.735 -39.5,0.414 -39.5,0.414 l 21.677,23.013 C 84.699,27.252 57.435,11.634 57.435,11.634 L 35.24,21.179 24.02,17.489 c 0,0 -14.81,14.102 -20.883,21.911 -6.076,7.809 -32.973,19.956 -32.973,19.956 l 17.942,-24.294 c 0,0 -23.988,6.306 -39.975,6.959 l -15.462,26.535 -7.788,31.236 0,-45.066 -5.875,-28.926 c -7.128,-7.571 -13.05,-15.033 -13.05,-15.033 7.808,0.867 20.824,-1.736 20.824,-1.736 -15.634,-4.338 -30.368,-21.692 -30.368,-21.692 0,0 32.104,6.941 41.309,0 9.205,-6.941 20.296,-6.941 50.385,0 11.988,2.765 22.169,2.223 30.093,0.573 -104.807,-17.602 -131.62,-106.957 -131.62,-106.957 -2.702,25.215 32.2,104.465 32.2,104.465 -63.259,-45.929 -90.737,-179.212 -90.737,-179.212 -31.52,39.625 -12.608,138.687 -12.608,138.687 L -122.427,63.77 C -183.666,9.736 -215.186,-54.205 -215.186,-54.205 l 17.111,81.952 92.759,72.045 -60.417,-31.755 c 47.191,31.831 104.69,55.633 105.459,55.948 l 1.155,0.474 1.031,0.708 9.83,6.754 12.021,8.257 -5.45,5.087 25.783,-5.672 18.903,-4.159 -4.809,17.631 44.748,-30.66 37.909,-57.517 1.406,-2.132 2.165,-1.354 c 0.323,-0.202 32.547,-20.344 47.195,-29.666 6.082,-3.87 8.413,-19.078 8.114,-28.383 l -0.758,-6.371 C 135.428,2.643 129.404,8.967 119.876,9.899 M 89.868,-22.92 c 0,0 12.361,8.724 22.528,5.623 10.169,-3.1 5.705,-15.075 5.705,-15.075 -7.261,5.7 -28.233,9.452 -28.233,9.452 m 31.271,-69.056 c -0.246,-0.984 -1.096,-4.283 -2.271,-8.851 -0.957,-3.712 -1.905,-7.401 -2.841,-11.043 -17.715,19.255 -52.852,31.352 -83.941,27.065 -34.486,-4.758 -92.017,-61.851 -112.877,-83.644 28.953,73.336 84.68,116.774 84.68,116.774 -10.568,4.135 -19.756,6.476 -19.756,6.476 0,0 -7.787,7.586 -5.055,10.983 11.264,14.001 34.328,20.751 39.34,22.084 11.836,-2.507 18.559,-7.47 18.559,-7.47 l 9.544,-6.074 c 0,0 18.221,-3.47 26.898,-2.603 8.677,0.868 24.294,-10.412 36.441,-16.486 8.324,-4.161 13.507,-21.008 15.949,-31.206 -2.18,-7.236 -4.111,-13.769 -4.67,-16.005 m -195.617,-91.952 c -0.128,2.197 -0.188,3.411 -0.188,3.411 l 0.188,-3.411 z M 28.138,-372.61 -26.768,-415.005 c -8.414,0.979 -19.194,3.893 -32.62,10.48 -39.956,19.607 -49.531,64.84 -36.923,174.71 2.478,21.596 7.862,41.578 14.899,59.755 13.588,12.464 27.484,23.783 41.337,33.579 l -40.482,-40.355 c 0,0 -5.153,-121.478 13.253,-162.708 0,0 7.066,-20.614 36.663,-29.449 19.292,-5.759 44.813,-2.577 60.249,0.337 -0.493,-1.328 -0.985,-2.649 -1.47,-3.954 m 19.391,27.504 0,0.004 c -8.016,-6.076 -26.061,-16.076 -55.933,-13.584 -15.088,1.258 -31.478,4.357 -39.022,18.406 -6.163,11.477 -11.036,29.649 -14.853,49.685 l 4.694,0 c 0,0 4.43,-1.129 5.716,-6.254 1.001,-3.988 9.368,-17.284 13.03,-22.986 7.129,0.616 27.554,3.879 43.898,21.167 0,0 -2.51,-23.488 -19.813,-38.023 0.839,-0.955 1.861,-1.796 2.86,-1.796 l 18.325,0 32.672,5.125 8.327,7.047 c 0,0 15.395,6.336 35.544,27.647 0,0 1.37,-27.987 -35.445,-46.438 m 65.473,172.933 c 0.035,0.152 0.072,0.315 0.107,0.473 -0.29,1.052 -0.599,2.099 -0.925,3.142 0,0.008 -0.003,0.017 -0.003,0.024 0,0.003 -0.004,0 -0.004,0.002 -8.679,27.878 -28.523,52.115 -28.523,52.115 l -9.012,-13.972 c -8.927,9.266 -20.65,20.884 -20.65,20.884 -10.661,-17.571 -12.975,-20.884 -12.975,-20.884 l -21.609,12.609 c -7.303,-33.862 -15.236,-52.598 -15.236,-52.598 -2.701,45.326 -16.064,51.711 -16.066,51.711 34.989,19.392 68.09,27.119 93.309,16.928 31.235,-12.621 37.442,-36.426 38.461,-48.844 l 0,-0.001 c 0,0 1.142,-12.867 -4.652,-30.634 0,0 -1.313,5.246 -2.222,9.045 M 142.734,49.21 c -12.789,8.139 -38.845,24.445 -45.673,28.715 l -39.064,59.27 -94.63,64.84 10.64,-39.014 -85.119,18.726 41.843,-39.068 C -81.465,137.588 -177.938,96.348 -222.636,47.707 l -1.55,-1.687 -40.107,-160.425 9.378,-95.661 14.018,21.153 9.524,-75.54 22.2,33.301 34.838,-51.167 28.48,-107.143 39.23,-47.248 -8.241,-22.29 39.112,5.18 -9.094,-32.201 130.33,100.635 c 0,0 2.554,6.855 5.369,14.43 l 17.298,14.721 -0.305,0.785 c 17.205,10.615 28.349,27.186 32.418,48.382 3.395,17.681 0.6,32.427 0.48,33.047 l -3.32,17.048 15.325,48.509 8.319,-9.923 6.095,12.422 c 0.896,1.825 21.237,44.056 7.041,81.588 1.792,6.997 3.444,13.411 4.701,18.296 1.22,4.735 2.071,8.045 2.329,9.081 1.061,4.24 9.043,30.354 12.028,40.059 l 0.239,0.777 6.89,57.866 0.014,0.33 c 0.163,3.574 1.046,35.268 -17.669,47.178" />
    </g>
    <g
       style="fill:#c20142;fill-opacity:1;stroke:none"
       transform="matrix(0.99573365,0,0,-0.96223273,648.36845,310.93474)"
       id="g4538">
      <path
         inkscape:connector-curvature="0"
         id="path4540"
         style="fill:#c20142;fill-opacity:1;fill-rule:nonzero;stroke:none"
         d="M 0,0 C 0,0 -8.658,6.723 -32.184,17.289 L -10.691,20.17 0,6.724 0,0 z m -117.586,30.983 16.732,13.694 26.896,-12.02 12.786,-9.997 c 0,0 -34.173,10.951 -56.414,8.323 m 112.282,-6.57 c -12.147,6.073 -27.764,17.354 -36.441,16.486 -8.677,-0.868 -26.899,2.602 -26.899,2.602 l -9.544,6.075 c 0,0 -6.722,4.963 -18.558,7.47 -5.012,-1.334 -28.076,-8.083 -39.34,-22.084 -2.732,-3.397 5.055,-10.983 5.055,-10.983 0,0 9.188,-2.341 19.756,-6.476 0,0 -55.727,-43.438 -84.68,-116.774 20.86,21.792 78.391,78.886 112.877,83.644 31.089,4.287 66.225,-7.811 83.941,-27.065 0.936,3.642 1.884,7.331 2.841,11.043 1.175,4.567 2.025,7.867 2.271,8.851 0.559,2.236 2.49,8.769 4.67,16.005 C 8.203,3.404 3.02,20.252 -5.304,24.413" />
    </g>
    <g
       style="fill:#c20142;fill-opacity:1;stroke:none"
       transform="matrix(0.99573365,0,0,-0.96223273,672.07158,247.27332)"
       id="g4542">
      <path
         inkscape:connector-curvature="0"
         id="path4544"
         style="fill:#c20142;fill-opacity:1;fill-rule:nonzero;stroke:none"
         d="m 0,0 0.758,6.37 c 0.3,9.305 -2.031,24.513 -8.113,28.383 -14.649,9.322 -46.873,29.465 -47.196,29.667 l -2.165,1.353 -1.406,2.132 -37.909,57.518 -44.747,30.66 4.808,-17.631 -18.903,4.158 -25.782,5.672 5.449,-5.087 -12.021,-8.256 -9.83,-6.754 -1.03,-0.708 -1.156,-0.474 c -0.769,-0.315 -58.268,-24.117 -105.459,-55.949 l 60.417,31.756 -92.758,-72.045 -17.111,-81.952 c 0,0 31.519,63.94 92.758,117.974 l -62.139,-118.874 c 0,0 -18.912,-99.062 12.608,-138.687 0,0 27.478,133.283 90.737,179.212 0,0 -34.902,-79.25 -32.2,-104.466 0,0 26.813,89.355 131.62,106.957 -7.923,1.65 -18.105,2.193 -30.092,-0.572 -30.09,-6.941 -41.18,-6.941 -50.386,0 -9.205,6.941 -41.309,0 -41.309,0 0,0 14.734,17.353 30.369,21.692 0,0 -13.017,2.602 -20.825,1.735 0,0 5.922,7.463 13.05,15.034 l 5.876,28.926 0,45.066 7.787,-31.237 15.462,-26.534 c 15.987,-0.653 39.976,-6.96 39.976,-6.96 l -17.943,24.295 c 0,0 26.897,-12.147 32.973,-19.956 6.073,-7.809 20.883,-21.911 20.883,-21.911 l 11.22,3.689 22.195,-9.544 c 0,0 27.264,15.618 44.618,21.692 L -58.593,13.33 c 0,0 21.747,1.322 39.5,-0.413 C -9.564,11.984 -3.541,5.66 0,0" />
    </g>
    <g
       style="fill:#000000;fill-opacity:1;stroke:none"
       transform="matrix(0.99573365,0,0,-0.96223273,459.34882,418.06867)"
       id="g4546">
      <path
         inkscape:connector-curvature="0"
         id="path4548"
         style="fill:#000000;fill-opacity:1;fill-rule:nonzero;stroke:none"
         d="M 0,0 C 0,0 0.06,-1.215 0.188,-3.411 L 0,0 z" />
    </g>
    <g
       style="fill:#c20142;fill-opacity:1;stroke:none"
       transform="matrix(0.99573365,0,0,-0.96223273,503.1859,599.42693)"
       id="g4550">
      <path
         inkscape:connector-curvature="0"
         id="path4552"
         style="fill:#c20142;fill-opacity:1;fill-rule:nonzero;stroke:none"
         d="m 0,0 c -29.597,8.835 -36.663,29.449 -36.663,29.449 -18.406,41.23 -13.254,162.708 -13.254,162.708 l 40.482,40.355 c -13.852,-9.796 -27.749,-21.115 -41.336,-33.578 -7.038,-18.178 -12.421,-38.16 -14.899,-59.756 -12.608,-109.869 -3.034,-155.103 36.923,-174.71 13.426,-6.587 24.206,-9.501 32.62,-10.48 l 54.905,42.395 c 0.486,1.305 0.978,2.626 1.471,3.954 C 44.813,-2.577 19.292,-5.759 0,0" />
    </g>
    <g
       style="fill:#c20142;fill-opacity:1;stroke:none"
       transform="matrix(0.99573365,0,0,-0.96223273,653.06034,389.26703)"
       id="g4554">
      <path
         inkscape:connector-curvature="0"
         id="path4556"
         style="fill:#c20142;fill-opacity:1;fill-rule:nonzero;stroke:none"
         d="m 0,0 0,0.001 c -1.019,12.418 -7.226,36.223 -38.461,48.845 -25.219,10.19 -58.32,2.464 -93.309,-16.929 0.002,0 13.365,-6.385 16.066,-51.71 0,0 7.933,18.736 15.236,52.598 l 21.609,-12.609 c 0,0 2.314,3.313 12.975,20.884 0,0 11.723,-11.619 20.65,-20.884 l 9.012,13.971 c 0,0 19.844,-24.236 28.523,-52.115 0,-0.002 0.004,0.001 0.004,-0.002 0,-0.007 0.003,-0.015 0.003,-0.023 0.326,-1.043 0.635,-2.091 0.925,-3.143 -0.035,-0.158 -0.072,-0.32 -0.107,-0.472 0.909,-3.799 2.222,-9.045 2.222,-9.045 C 1.142,-12.867 0,0 0,0" />
    </g>
    <g
       style="fill:#c20142;fill-opacity:1;stroke:none"
       transform="matrix(0.99573365,0,0,-0.96223273,507.27089,220.90959)"
       id="g4558">
      <path
         inkscape:connector-curvature="0"
         id="path4560"
         style="fill:#c20142;fill-opacity:1;fill-rule:nonzero;stroke:none"
         d="m 0,0 c -12.67,2.665 -26.643,-13.199 -26.643,-13.199 0,0 37.121,-2.857 53.181,-11.182 0,0 -13.867,21.717 -26.538,24.381" />
    </g>
    <g
       style="fill:#c20142;fill-opacity:1;stroke:none"
       transform="matrix(0.99573365,0,0,-0.96223273,645.61275,261.01334)"
       id="g4562">
      <path
         inkscape:connector-curvature="0"
         id="path4564"
         style="fill:#c20142;fill-opacity:1;fill-rule:nonzero;stroke:none"
         d="m 0,0 c -10.168,3.101 -22.528,-5.624 -22.528,-5.624 0,0 20.971,-3.751 28.232,-9.451 0,0 4.465,11.974 -5.704,15.075" />
    </g>
    <g
       style="fill:#c20142;fill-opacity:1;stroke:none"
       transform="matrix(0.99573365,0,0,-0.96223273,616.31538,531.75781)"
       id="g4566">
      <path
         inkscape:connector-curvature="0"
         id="path4568"
         style="fill:#c20142;fill-opacity:1;fill-rule:nonzero;stroke:none"
         d="m 0,0 c -20.148,-21.312 -35.544,-27.647 -35.544,-27.647 l -8.327,-7.047 -32.672,-5.125 -18.324,0 c -0.999,0 -2.022,0.841 -2.861,1.796 C -80.425,-23.488 -77.915,0 -77.915,0 c -16.344,-17.288 -36.769,-20.551 -43.898,-21.167 -3.662,5.702 -12.029,18.998 -13.03,22.986 -1.285,5.125 -5.716,6.254 -5.716,6.254 l -4.694,0 c 3.817,-20.036 8.69,-38.208 14.854,-49.685 7.544,-14.049 23.933,-17.148 39.021,-18.406 29.872,-2.492 47.917,7.508 55.934,13.584 l 0,-0.004 C 1.37,-27.987 0,0 0,0" />
    </g>
    <g
       style="fill:#9b0032;fill-opacity:1;stroke:none"
       transform="matrix(0.99573365,0,0,-0.96223273,547.94522,267.94535)"
       id="g4570">
      <path
         inkscape:connector-curvature="0"
         id="path4572"
         style="fill:#9b0032;fill-opacity:1;fill-rule:nonzero;stroke:none"
         d="m 0,0 -16.732,-13.694 c 22.241,2.628 56.414,-8.323 56.414,-8.323 L 26.896,-12.02 0,0 z" />
    </g>
    <g
       style="fill:#9b0032;fill-opacity:1;stroke:none"
       transform="matrix(0.99573365,0,0,-0.96223273,616.32225,294.2987)"
       id="g4574">
      <path
         inkscape:connector-curvature="0"
         id="path4576"
         style="fill:#9b0032;fill-opacity:1;fill-rule:nonzero;stroke:none"
         d="m 0,0 c 23.525,-10.566 32.184,-17.289 32.184,-17.289 l 0,6.724 L 21.492,2.881 0,0 z" />
    </g>
  </g>
</svg>
