<?xml version="1.0" encoding="UTF-8" standalone="no"?>
<!-- Created with Inkscape (http://www.inkscape.org/) -->

<svg
   xmlns:dc="http://purl.org/dc/elements/1.1/"
   xmlns:cc="http://creativecommons.org/ns#"
   xmlns:rdf="http://www.w3.org/1999/02/22-rdf-syntax-ns#"
   xmlns:svg="http://www.w3.org/2000/svg"
   xmlns="http://www.w3.org/2000/svg"
   xmlns:sodipodi="http://sodipodi.sourceforge.net/DTD/sodipodi-0.dtd"
   xmlns:inkscape="http://www.inkscape.org/namespaces/inkscape"
   width="1024px"
   height="768px"
   id="svg2985"
   version="1.1"
   inkscape:version="0.48.4 r9939"
   sodipodi:docname="logo_black.svg">
  <defs
     id="defs2987" />
  <sodipodi:namedview
     id="base"
     pagecolor="#ffffff"
     bordercolor="#666666"
     borderopacity="1.0"
     inkscape:pageopacity="0.0"
     inkscape:pageshadow="2"
     inkscape:zoom="0.39199503"
     inkscape:cx="317.45172"
     inkscape:cy="181.9367"
     inkscape:current-layer="layer1"
     inkscape:document-units="px"
     showgrid="false"
     inkscape:window-width="1307"
     inkscape:window-height="744"
     inkscape:window-x="59"
     inkscape:window-y="24"
     inkscape:window-maximized="1" />
  <metadata
     id="metadata2990">
    <rdf:RDF>
      <cc:Work
         rdf:about="">
        <dc:format>image/svg+xml</dc:format>
        <dc:type
           rdf:resource="http://purl.org/dc/dcmitype/StillImage" />
        <dc:title></dc:title>
      </cc:Work>
    </rdf:RDF>
  </metadata>
  <g
     id="layer1"
     inkscape:label="Layer 1"
     inkscape:groupmode="layer">
    <rect
       style="fill:#000000;fill-opacity:0.78431379;stroke:none"
       id="rect2993"
       width="265.16504"
       height="88.388344"
       x="-216.39059"
       y="394.18649"
       transform="matrix(0.70710677,-0.70710679,0.70710677,0.70710679,0,0)" />
    <rect
       y="125.73795"
       x="-494.21542"
       height="62.499996"
       width="62.5"
       id="rect3763"
       style="fill:#000000;fill-opacity:0.78431379;stroke:none"
       transform="matrix(0,-1,1,0,0,0)" />
    <rect
       transform="matrix(0,-1,1,0,0,0)"
       style="fill:#000000;fill-opacity:0.78431379;stroke:none"
       id="rect3765"
       width="62.5"
       height="62.499996"
       x="-306.74664"
       y="313.2067" />
    <rect
       transform="matrix(-0.70710677,-0.70710679,-0.70710677,0.70710679,0,0)"
       y="39.613865"
       x="-570.96252"
       height="88.388344"
       width="265.16504"
       id="rect3767"
       style="fill:#000000;fill-opacity:0.78431379;stroke:none" />
    <rect
       transform="matrix(0,-1,-1,0,0,0)"
       style="fill:#000000;fill-opacity:0.78431379;stroke:none"
       id="rect3769"
       width="62.5"
       height="62.499996"
       x="-494.21542"
       y="-375.70346" />
    <rect
       y="-188.2347"
       x="-306.74664"
       height="62.499996"
       width="62.5"
       id="rect3771"
       style="fill:#000000;fill-opacity:0.78431379;stroke:none"
       transform="matrix(0,-1,-1,0,0,0)" />
    <path
       sodipodi:type="arc"
       style="fill:#000000;fill-opacity:0.78431379;stroke:none"
       id="path3773"
       sodipodi:cx="509.82397"
       sodipodi:cy="299.1882"
       sodipodi:rx="147.78532"
       sodipodi:ry="150.61374"
       d="m 657.6093,299.1882 a 147.78532,150.61374 0 1 1 -295.57065,0 147.78532,150.61374 0 1 1 295.57065,0 z"
       transform="matrix(1.0149858,0,0,0.99592508,-6.2830363,71.060895)" />
    <rect
       transform="matrix(0.70710677,-0.70710679,0.70710677,0.70710679,0,0)"
       y="762.86829"
       x="152.29526"
       height="88.388344"
       width="265.16504"
       id="rect3775"
       style="fill:#000000;fill-opacity:0.78431379;stroke:none" />
    <rect
       transform="matrix(0,-1,1,0,0,0)"
       style="fill:#000000;fill-opacity:0.78431379;stroke:none"
       id="rect3777"
       width="62.5"
       height="62.499996"
       x="-494.21542"
       y="647.13794" />
    <rect
       y="834.60669"
       x="-306.74664"
       height="62.499996"
       width="62.5"
       id="rect3779"
       style="fill:#000000;fill-opacity:0.78431379;stroke:none"
       transform="matrix(0,-1,1,0,0,0)" />
    <rect
       style="fill:#000000;fill-opacity:0.78431379;stroke:none"
       id="rect3781"
       width="265.16504"
       height="88.388344"
       x="-939.64111"
       y="-329.07193"
       transform="matrix(-0.70710677,-0.70710679,-0.70710677,0.70710679,0,0)" />
    <rect
       y="-897.10345"
       x="-494.21542"
       height="62.499996"
       width="62.5"
       id="rect3783"
       style="fill:#000000;fill-opacity:0.78431379;stroke:none"
       transform="matrix(0,-1,-1,0,0,0)" />
    <rect
       transform="matrix(0,-1,-1,0,0,0)"
       style="fill:#000000;fill-opacity:0.78431379;stroke:none"
       id="rect3785"
       width="62.5"
       height="62.499996"
       x="-306.74664"
       y="-709.6347" />
    <path
       transform="matrix(0.50749288,0,0,0.49796254,252.15969,220.92052)"
       d="m 657.6093,299.1882 a 147.78532,150.61374 0 1 1 -295.57065,0 147.78532,150.61374 0 1 1 295.57065,0 z"
       sodipodi:ry="150.61374"
       sodipodi:rx="147.78532"
       sodipodi:cy="299.1882"
       sodipodi:cx="509.82397"
       id="path3787"
       style="fill:#000000;fill-opacity:0.78431379;stroke:none"
       sodipodi:type="arc" />
  </g>
</svg>
