<?xml version="1.0" encoding="UTF-8" standalone="no"?>
<!-- Created with Inkscape (http://www.inkscape.org/) -->

<svg
   xmlns:dc="http://purl.org/dc/elements/1.1/"
   xmlns:cc="http://creativecommons.org/ns#"
   xmlns:rdf="http://www.w3.org/1999/02/22-rdf-syntax-ns#"
   xmlns:svg="http://www.w3.org/2000/svg"
   xmlns="http://www.w3.org/2000/svg"
   xmlns:sodipodi="http://sodipodi.sourceforge.net/DTD/sodipodi-0.dtd"
   xmlns:inkscape="http://www.inkscape.org/namespaces/inkscape"
   width="1024px"
   height="768px"
   id="svg2985"
   version="1.1"
   inkscape:version="0.48.4 r9939"
   sodipodi:docname="logo_blue.svg">
  <defs
     id="defs2987" />
  <sodipodi:namedview
     id="base"
     pagecolor="#ffffff"
     bordercolor="#666666"
     borderopacity="1.0"
     inkscape:pageopacity="0.0"
     inkscape:pageshadow="2"
     inkscape:zoom="0.39199503"
     inkscape:cx="280.12044"
     inkscape:cy="181.9367"
     inkscape:current-layer="layer1"
     inkscape:document-units="px"
     showgrid="false"
     inkscape:window-width="1307"
     inkscape:window-height="744"
     inkscape:window-x="59"
     inkscape:window-y="24"
     inkscape:window-maximized="1" />
  <metadata
     id="metadata2990">
    <rdf:RDF>
      <cc:Work
         rdf:about="">
        <dc:format>image/svg+xml</dc:format>
        <dc:type
           rdf:resource="http://purl.org/dc/dcmitype/StillImage" />
        <dc:title />
      </cc:Work>
    </rdf:RDF>
  </metadata>
  <g
     id="layer1"
     inkscape:label="Layer 1"
     inkscape:groupmode="layer">
    <rect
       style="fill:#0026fc;fill-opacity:0.78431374;stroke:none"
       id="rect2993"
       width="265.16504"
       height="88.388344"
       x="-165.47885"
       y="343.27475"
       transform="matrix(0.70710677,-0.70710679,0.70710677,0.70710679,0,0)" />
    <rect
       y="125.73795"
       x="-422.21542"
       height="62.499996"
       width="62.5"
       id="rect3763"
       style="fill:#0026fc;fill-opacity:0.78431374;stroke:none"
       transform="matrix(0,-1,1,0,0,0)" />
    <rect
       transform="matrix(0,-1,1,0,0,0)"
       style="fill:#0026fc;fill-opacity:0.78431374;stroke:none"
       id="rect3765"
       width="62.5"
       height="62.499996"
       x="-234.74664"
       y="313.2067" />
    <rect
       transform="matrix(-0.70710677,-0.70710679,-0.70710677,0.70710679,0,0)"
       y="-11.297826"
       x="-520.05188"
       height="88.388344"
       width="265.16504"
       id="rect3767"
       style="fill:#0026fc;fill-opacity:0.78431374;stroke:none" />
    <rect
       transform="matrix(0,-1,-1,0,0,0)"
       style="fill:#0026fc;fill-opacity:0.78431374;stroke:none"
       id="rect3769"
       width="62.5"
       height="62.499996"
       x="-422.21542"
       y="-375.70346" />
    <rect
       y="-188.2347"
       x="-234.74664"
       height="62.499996"
       width="62.5"
       id="rect3771"
       style="fill:#0026fc;fill-opacity:0.78431374;stroke:none"
       transform="matrix(0,-1,-1,0,0,0)" />
    <path
       sodipodi:type="arc"
       style="fill:#0026fc;fill-opacity:0.78431374;stroke:none"
       id="path3773"
       sodipodi:cx="509.82397"
       sodipodi:cy="299.1882"
       sodipodi:rx="147.78532"
       sodipodi:ry="150.61374"
       d="m 657.6093,299.1882 a 147.78532,150.61374 0 1 1 -295.57065,0 147.78532,150.61374 0 1 1 295.57065,0 z"
       transform="matrix(1.0149858,0,0,0.99592508,-6.2830363,-0.93910538)" />
    <rect
       transform="matrix(0.70710677,-0.70710679,0.70710677,0.70710679,0,0)"
       y="711.95764"
       x="203.207"
       height="88.388344"
       width="265.16504"
       id="rect3775"
       style="fill:#0026fc;fill-opacity:0.78431374;stroke:none" />
    <rect
       transform="matrix(0,-1,1,0,0,0)"
       style="fill:#0026fc;fill-opacity:0.78431374;stroke:none"
       id="rect3777"
       width="62.5"
       height="62.499996"
       x="-422.21542"
       y="647.13794" />
    <rect
       y="834.60669"
       x="-234.74664"
       height="62.499996"
       width="62.5"
       id="rect3779"
       style="fill:#0026fc;fill-opacity:0.78431374;stroke:none"
       transform="matrix(0,-1,1,0,0,0)" />
    <rect
       style="fill:#0026fc;fill-opacity:0.78431374;stroke:none"
       id="rect3781"
       width="265.16504"
       height="88.388344"
       x="-888.73047"
       y="-379.98367"
       transform="matrix(-0.70710677,-0.70710679,-0.70710677,0.70710679,0,0)" />
    <rect
       y="-897.10345"
       x="-422.21542"
       height="62.499996"
       width="62.5"
       id="rect3783"
       style="fill:#0026fc;fill-opacity:0.78431374;stroke:none"
       transform="matrix(0,-1,-1,0,0,0)" />
    <rect
       transform="matrix(0,-1,-1,0,0,0)"
       style="fill:#0026fc;fill-opacity:0.78431374;stroke:none"
       id="rect3785"
       width="62.5"
       height="62.499996"
       x="-234.74664"
       y="-709.6347" />
    <path
       transform="matrix(0.50749288,0,0,0.49796254,252.15969,148.92052)"
       d="m 657.6093,299.1882 a 147.78532,150.61374 0 1 1 -295.57065,0 147.78532,150.61374 0 1 1 295.57065,0 z"
       sodipodi:ry="150.61374"
       sodipodi:rx="147.78532"
       sodipodi:cy="299.1882"
       sodipodi:cx="509.82397"
       id="path3787"
       style="fill:#0026fc;fill-opacity:0.78431374;stroke:none"
       sodipodi:type="arc" />
    <rect
       transform="matrix(0.71048418,-0.70371318,0.71048418,0.70371318,0,0)"
       y="492.29144"
       x="-314.35895"
       height="35.417534"
       width="106.25259"
       id="rect3789"
       style="fill:#0026fc;fill-opacity:0.78431374;stroke:none" />
    <rect
       transform="matrix(0,-1,1,0,0,0)"
       style="fill:#0026fc;fill-opacity:0.78431374;stroke:none"
       id="rect3791"
       width="24.9238"
       height="25.163605"
       x="-592.56378"
       y="126.42581" />
    <rect
       y="201.90413"
       x="-517.80487"
       height="25.163605"
       width="24.9238"
       id="rect3793"
       style="fill:#0026fc;fill-opacity:0.78431374;stroke:none"
       transform="matrix(0,-1,1,0,0,0)" />
    <rect
       style="fill:#0026fc;fill-opacity:0.78431374;stroke:none"
       id="rect3801"
       width="61.774521"
       height="35.417534"
       x="-554.06561"
       y="-287.83456"
       transform="matrix(-0.71048422,-0.70371313,0.71048419,-0.70371317,0,0)" />
    <rect
       y="189.15416"
       x="-592.45807"
       height="25.163605"
       width="24.9238"
       id="rect3803"
       style="fill:#0026fc;fill-opacity:0.78431374;stroke:none"
       transform="matrix(0,-1,1,0,0,0)" />
    <path
       transform="matrix(0.34054269,0,0,0.32831535,106.52299,444.89782)"
       d="m 657.6093,299.1882 a 147.78532,150.61374 0 1 1 -295.57065,0 147.78532,150.61374 0 1 1 295.57065,0 z"
       sodipodi:ry="150.61374"
       sodipodi:rx="147.78532"
       sodipodi:cy="299.1882"
       sodipodi:cx="509.82397"
       id="path3807"
       style="fill:#0026fc;fill-opacity:0.78431374;stroke:none"
       sodipodi:type="arc" />
    <path
       sodipodi:type="arc"
       style="fill:#0026fc;fill-opacity:0.78431374;stroke:none"
       id="path3809"
       sodipodi:cx="509.82397"
       sodipodi:cy="299.1882"
       sodipodi:rx="147.78532"
       sodipodi:ry="150.61374"
       d="m 657.6093,299.1882 a 147.78532,150.61374 0 1 1 -295.57065,0 147.78532,150.61374 0 1 1 295.57065,0 z"
       transform="matrix(0.17027135,0,0,0.16415764,193.23431,494.30034)" />
    <rect
       style="fill:#0026fc;fill-opacity:0.78431374;stroke:none"
       id="rect3811"
       width="106.25259"
       height="35.417534"
       x="-168.97659"
       y="637.4649"
       transform="matrix(0.71048418,-0.70371318,0.71048418,0.70371318,0,0)" />
    <rect
       y="332.86206"
       x="-592.41718"
       height="25.163605"
       width="24.9238"
       id="rect3813"
       style="fill:#0026fc;fill-opacity:0.78431374;stroke:none"
       transform="matrix(0,-1,1,0,0,0)" />
    <rect
       transform="matrix(0,-1,1,0,0,0)"
       style="fill:#0026fc;fill-opacity:0.78431374;stroke:none"
       id="rect3815"
       width="24.9238"
       height="25.163605"
       x="-517.65814"
       y="408.34027" />
    <rect
       transform="matrix(-2.0133412e-8,-1,1,0,0,0)"
       y="397.86508"
       x="-592.57471"
       height="35.586712"
       width="74.990601"
       id="rect3842"
       style="fill:#0026fc;fill-opacity:0.78431374;stroke:none" />
    <rect
       style="fill:#0026fc;fill-opacity:0.78431374;stroke:none"
       id="rect3844"
       width="257.32663"
       height="34.250969"
       x="-665.63727"
       y="-527.13043"
       transform="scale(-1,-1)" />
    <rect
       style="fill:#0026fc;fill-opacity:0.78431374;stroke:none"
       id="rect3846"
       width="99.701897"
       height="35.586712"
       x="-592.57471"
       y="497.71429"
       transform="matrix(-1.5143307e-8,-1,1,0,0,0)" />
    <rect
       style="fill:#0026fc;fill-opacity:0.78431374;stroke:none"
       id="rect3848"
       width="106.25259"
       height="35.417534"
       x="11.825233"
       y="818.47437"
       transform="matrix(0.71048418,-0.70371318,0.71048418,0.70371318,0,0)" />
    <rect
       y="589.92206"
       x="-592.56354"
       height="25.163605"
       width="24.9238"
       id="rect3850"
       style="fill:#0026fc;fill-opacity:0.78431374;stroke:none"
       transform="matrix(0,-1,1,0,0,0)" />
    <rect
       transform="matrix(0,-1,1,0,0,0)"
       style="fill:#0026fc;fill-opacity:0.78431374;stroke:none"
       id="rect3852"
       width="24.9238"
       height="25.163605"
       x="-517.80463"
       y="665.40027" />
    <rect
       transform="matrix(-0.71048422,-0.70371313,0.71048419,-0.70371317,0,0)"
       y="38.349586"
       x="-880.24921"
       height="35.417534"
       width="61.774521"
       id="rect3854"
       style="fill:#0026fc;fill-opacity:0.78431374;stroke:none" />
    <rect
       transform="matrix(0,-1,1,0,0,0)"
       style="fill:#0026fc;fill-opacity:0.78431374;stroke:none"
       id="rect3856"
       width="24.9238"
       height="25.163605"
       x="-592.45776"
       y="652.65033" />
    <path
       sodipodi:type="arc"
       style="fill:#0026fc;fill-opacity:0.78431374;stroke:none"
       id="path3860"
       sodipodi:cx="509.82397"
       sodipodi:cy="299.1882"
       sodipodi:rx="147.78532"
       sodipodi:ry="150.61374"
       d="m 657.6093,299.1882 a 147.78532,150.61374 0 1 1 -295.57065,0 147.78532,150.61374 0 1 1 295.57065,0 z"
       transform="matrix(0.33781838,0,0,0.33096316,570.72022,443.70684)" />
    <path
       transform="matrix(0.16890918,0,0,0.16548156,656.73789,493.50777)"
       d="m 657.6093,299.1882 a 147.78532,150.61374 0 1 1 -295.57065,0 147.78532,150.61374 0 1 1 295.57065,0 z"
       sodipodi:ry="150.61374"
       sodipodi:rx="147.78532"
       sodipodi:cy="299.1882"
       sodipodi:cx="509.82397"
       id="path3862"
       style="fill:#0026fc;fill-opacity:0.78431374;stroke:none"
       sodipodi:type="arc" />
    <rect
       transform="scale(-1,1)"
       y="558.32373"
       x="-897.42236"
       height="34.25098"
       width="101.85782"
       id="rect3864"
       style="fill:#0026fc;fill-opacity:0.78431374;stroke:none" />
    <rect
       transform="matrix(-1.5143304e-8,1,1,0,0,0)"
       y="795.58813"
       x="492.87943"
       height="35.586712"
       width="99.701904"
       id="rect3866"
       style="fill:#0026fc;fill-opacity:0.78431374;stroke:none" />
  </g>
</svg>
