<?xml version="1.0" encoding="UTF-8" standalone="no"?>
<!-- Created with Inkscape (http://www.inkscape.org/) -->

<svg
   xmlns:dc="http://purl.org/dc/elements/1.1/"
   xmlns:cc="http://creativecommons.org/ns#"
   xmlns:rdf="http://www.w3.org/1999/02/22-rdf-syntax-ns#"
   xmlns:svg="http://www.w3.org/2000/svg"
   xmlns="http://www.w3.org/2000/svg"
   xmlns:sodipodi="http://sodipodi.sourceforge.net/DTD/sodipodi-0.dtd"
   xmlns:inkscape="http://www.inkscape.org/namespaces/inkscape"
   width="1024px"
   height="768px"
   id="svg3360"
   version="1.1"
   inkscape:version="0.48.4 r9939"
   sodipodi:docname="New document 1">
  <defs
     id="defs3362" />
  <sodipodi:namedview
     id="base"
     pagecolor="#ffffff"
     bordercolor="#666666"
     borderopacity="1.0"
     inkscape:pageopacity="0.0"
     inkscape:pageshadow="2"
     inkscape:zoom="0.5"
     inkscape:cx="720.44715"
     inkscape:cy="481.01229"
     inkscape:current-layer="layer1"
     inkscape:document-units="px"
     showgrid="false"
     inkscape:window-width="1307"
     inkscape:window-height="744"
     inkscape:window-x="59"
     inkscape:window-y="24"
     inkscape:window-maximized="1" />
  <metadata
     id="metadata3365">
    <rdf:RDF>
      <cc:Work
         rdf:about="">
        <dc:format>image/svg+xml</dc:format>
        <dc:type
           rdf:resource="http://purl.org/dc/dcmitype/StillImage" />
        <dc:title></dc:title>
      </cc:Work>
    </rdf:RDF>
  </metadata>
  <g
     id="layer1"
     inkscape:label="Layer 1"
     inkscape:groupmode="layer">
    <g
       transform="matrix(3.0749481,0,0,-3.2766743,244.59376,549.41107)"
       id="g8766"
       style="fill:#d4d4d4;fill-opacity:1;stroke:none">
      <path
         inkscape:connector-curvature="0"
         id="path8768"
         style="fill:#d4d4d4;stroke:none;stroke-width:1.31400001000000000;stroke-linecap:round;stroke-linejoin:round;stroke-miterlimit:2.61299992000000003;stroke-opacity:1;stroke-dasharray:none;fill-opacity:1"
         d="m 0,0 24.002,0 -4.778,16.375 -15.033,0 L 0,0 z m -7.827,5.332 0,41.683 9.351,8.587 0.381,-28.736 21.128,0 0,28.736 9.318,-8.587 0,-41.856 -4.573,-2.458 -5.507,17.483 -20.747,0 -5.334,-17.692 -4.017,2.84 z m 20.608,93.476 15.032,10.282 -29.891,0 14.859,-10.282 z M -2.494,89.46 1.905,65.849 l -23.413,0 -15.655,10.871 -7.031,40.16 15.066,0 3.048,-15.233 23.586,-12.187 z m 8.383,-22.434 0,-36.56 12.78,0 0,36.941 3.602,19.215 -10.46,-4.397 -9.144,4.397 3.222,-19.596 z m -10.495,8.551 -27.604,11.598 0.415,-3.496 27.189,-12.083 0,3.981 z m 53.546,28.389 -37.129,-16.964 -34.843,17.692 -1.697,10.109 c 24.764,8.482 50.013,8.135 75.782,-0.97 l -2.113,-9.867 z m -56.179,-16.791 -26.565,12.013 0.346,-4.292 26.427,-11.91 -0.208,4.189 z m 59.4,-24.165 -0.381,-7.237 -15.411,-9.311 0,-40.543 21.542,9.487 4.156,54.459 -9.906,-6.855 z m 7.621,29.323 -26.635,-10.455 0,3.981 26.635,10.491 0,-4.017 z M 56.94,81.29 29.684,70.072 l 0,4.363 27.256,10.456 0,-3.601 z M 55.625,115.564 51.988,100.919 27.224,88.906 22.86,65.502 l 25.144,0 15.413,9.694 7.62,40.368 -15.412,0 z m -83.264,-50.096 -8.728,5.539 3.395,-53.488 20.781,-10.836 0.208,40.332 -14.478,9.14 -1.178,9.313 z" />
    </g>
    <g
       transform="matrix(3.0749481,0,0,-3.2766743,752.73826,283.53089)"
       id="g8770"
       style="stroke:none;fill:#d4d4d4;fill-opacity:1">
      <path
         inkscape:connector-curvature="0"
         id="path8772"
         style="fill:#d4d4d4;fill-opacity:1;fill-rule:nonzero;stroke:none"
         d="m 0,0 -4.955,14.866 9.912,0 L 0,0 z M 19.328,38.159 -0.248,24.53 -19.891,38.662 -10.402,-0.022 -0.184,-10.24 9.305,-0.022 19.523,38.662 19.328,38.159 z" />
    </g>
    <g
       transform="matrix(3.0749481,0,0,-3.2766743,750.39547,888.99369)"
       id="g8774"
       style="stroke:none;fill:#d4d4d4;fill-opacity:1">
      <path
         inkscape:connector-curvature="0"
         id="path8776"
         style="fill:#d4d4d4;fill-opacity:1;fill-rule:nonzero;stroke:none"
         d="m 15.134902,150.08777 -4.709,15.116 24.778997,0 -20.069997,-15.116 z m -29.488,0 -19.576,14.868 24.5329999,0 -4.9569999,-14.868 z m 54.513997,54.266 -20.071,0 -2.477997,-9.911 19.823997,0 -2.478,-4.957 -18.336997,0 -1.736,-4.955 17.099997,0 -3.965,-9.664 -17.593997,0 -9.66400007,-9.911 -10.15800003,9.911 -17.5949999,0 -3.716,9.664 16.354,0 -1.486,4.955 -18.09,0 -1.485,4.957 18.583,0 -2.477,10.159 -19.577,0 -19.822,19.576 10.158,-59.222 49.06299993,-58.974 49.55899707,59.222 9.416,58.974 -19.328,-19.824 z" />
    </g>
    <g
       transform="matrix(3.0749481,0,0,-3.2766743,782.45488,541.72562)"
       id="g8778"
       style="stroke:none;fill:#d4d4d4;fill-opacity:1">
      <path
         inkscape:connector-curvature="0"
         id="path8780"
         style="fill:#d4d4d4;fill-opacity:1;fill-rule:nonzero;stroke:none"
         d="M 0,0 30.725,4.708 37.168,47.08 0,0 z" />
    </g>
    <g
       transform="matrix(3.0749481,0,0,-3.2766743,722.26215,541.72562)"
       id="g8782"
       style="stroke:none;fill:#d4d4d4;fill-opacity:1">
      <path
         inkscape:connector-curvature="0"
         id="path8784"
         style="fill:#d4d4d4;fill-opacity:1;fill-rule:nonzero;stroke:none"
         d="M 0,0 -30.479,4.955 -37.665,47.328 0,0 z" />
    </g>
  </g>
</svg>
